<?xml version="1.0" encoding="UTF-8" standalone="no" ?>
<!DOCTYPE svg PUBLIC "-//W3C//DTD SVG 1.1//EN" "http://www.w3.org/Graphics/SVG/1.1/DTD/svg11.dtd">
<svg xmlns="http://www.w3.org/2000/svg" xmlns:xlink="http://www.w3.org/1999/xlink" version="1.1" width="1280" height="1024" viewBox="0 0 1280 1024" xml:space="preserve">
<desc>Created with Fabric.js 5.3.0</desc>
<defs>
</defs>
<g transform="matrix(1 0 0 1 640 512)" id="background-logo"  >
<rect style="stroke: none; stroke-width: 0; stroke-dasharray: none; stroke-linecap: butt; stroke-dashoffset: 0; stroke-linejoin: miter; stroke-miterlimit: 4; fill: rgb(255,255,255); fill-opacity: 0; fill-rule: nonzero; opacity: 1;"  paint-order="stroke"  x="-640" y="-512" rx="0" ry="0" width="1280" height="1024" />
</g>
<g transform="matrix(1.9211538461538462 0 0 1.9211538461538462 640 401.6545696397762)" id="logo-logo"  >
<g style=""  paint-order="stroke"   >
		<g transform="matrix(0.8009450098341586 0 0 -0.8009450098341586 -98.48203585768158 -51.15996203065197)"  >
<path style="stroke: none; stroke-width: 1; stroke-dasharray: none; stroke-linecap: butt; stroke-dashoffset: 0; stroke-linejoin: miter; stroke-miterlimit: 4; fill: rgb(0,0,0); fill-rule: nonzero; opacity: 1;"  paint-order="stroke"  transform=" translate(0.0024999999999995026, -12.384)" d="M 0 0 C 6.834 0.001 12.377 5.545 12.377 12.382 C 12.377 19.224 6.834 24.767 0 24.768 C -6.84 24.767 -12.382 19.224 -12.382 12.382 C -12.382 5.545 -6.84 0.001 0 0" stroke-linecap="round" />
</g>
		<g transform="matrix(0.8009450098341586 0 0 -0.8009450098341586 -65.01823296880644 -51.15996203065197)"  >
<path style="stroke: none; stroke-width: 1; stroke-dasharray: none; stroke-linecap: butt; stroke-dashoffset: 0; stroke-linejoin: miter; stroke-miterlimit: 4; fill: rgb(0,0,0); fill-rule: nonzero; opacity: 1;"  paint-order="stroke"  transform=" translate(-15.085499999999998, -12.384)" d="M 0 0 L 30.173 0 C 34.658 0 38.297 5.544 38.297 12.382 C 38.297 19.224 34.657999999999994 24.768 30.172999999999995 24.768 L 0 24.768 C -4.486 24.768 -8.126 19.224 -8.126 12.382000000000001 C -8.126 5.544 -4.486 0 0 0" stroke-linecap="round" />
</g>
		<g transform="matrix(0.8009450098341586 0 0 -0.8009450098341586 -106.85952018804193 3.012113898483335)"  >
<path style="stroke: none; stroke-width: 1; stroke-dasharray: none; stroke-linecap: butt; stroke-dashoffset: 0; stroke-linejoin: miter; stroke-miterlimit: 4; fill: rgb(0,0,0); fill-rule: nonzero; opacity: 1;"  paint-order="stroke"  transform=" translate(0.0030000000000001137, 12.3845)" d="M 0 0 C -6.84 -0.001 -12.382 -5.545 -12.382 -12.386 C -12.382 -19.224 -6.84 -24.768 0 -24.769 C 6.834 -24.767999999999997 12.376 -19.223999999999997 12.376 -12.386 C 12.376 -5.545 6.834 -0.001 0 0" stroke-linecap="round" />
</g>
		<g transform="matrix(0.8009450098341586 0 0 -0.8009450098341586 -73.39531682666194 3.0118736149803738)"  >
<path style="stroke: none; stroke-width: 1; stroke-dasharray: none; stroke-linecap: butt; stroke-dashoffset: 0; stroke-linejoin: miter; stroke-miterlimit: 4; fill: rgb(0,0,0); fill-rule: nonzero; opacity: 1;"  paint-order="stroke"  transform=" translate(-23.2115, -0.0015000000000000568)" d="M 0 0 C 0 -6.838 3.64 -12.383 8.126 -12.383 L 38.299 -12.383 C 42.784 -12.383 46.423 -6.837999999999999 46.423 0 C 46.423 6.841 42.784 12.386 38.299 12.386 L 8.126 12.386 C 3.64 12.386 0 6.841 0 0" stroke-linecap="round" />
</g>
		<g transform="matrix(0.8009450098341586 0 0 -0.8009450098341586 -86.19561950132652 53.83295581197149)"  >
<path style="stroke: none; stroke-width: 1; stroke-dasharray: none; stroke-linecap: butt; stroke-dashoffset: 0; stroke-linejoin: miter; stroke-miterlimit: 4; fill: rgb(0,0,0); fill-rule: nonzero; opacity: 1;"  paint-order="stroke"  transform=" translate(0.0024999999999995026, 12.3835)" d="M 0 0 C -6.84 0 -12.382 -5.545 -12.382 -12.385 C -12.382 -19.223 -6.84 -24.767 0 -24.767 C 6.834 -24.767 12.377 -19.223 12.377 -12.385 C 12.377 -5.545 6.834 0 0 0" stroke-linecap="round" />
</g>
		<g transform="matrix(0.8009450098341586 0 0 -0.8009450098341586 -52.731576328948506 53.83295581197149)"  >
<path style="stroke: none; stroke-width: 1; stroke-dasharray: none; stroke-linecap: butt; stroke-dashoffset: 0; stroke-linejoin: miter; stroke-miterlimit: 4; fill: rgb(0,0,0); fill-rule: nonzero; opacity: 1;"  paint-order="stroke"  transform=" translate(15.087499999999999, 12.3835)" d="M 0 0 L -30.173 0 C -34.659 0 -38.299 -5.545 -38.299 -12.385 C -38.299 -19.225 -34.659 -24.767 -30.173000000000002 -24.767 L 0 -24.767 C 4.485 -24.767 8.124 -19.225 8.124 -12.385 C 8.124 -5.545 4.485 0 0 0" stroke-linecap="round" />
</g>
		<g transform="matrix(0.8009450098341586 0 0 -0.8009450098341586 32.07648603734128 0)"  >
<path style="stroke: none; stroke-width: 1; stroke-dasharray: none; stroke-linecap: butt; stroke-dashoffset: 0; stroke-linejoin: miter; stroke-miterlimit: 4; fill: rgb(0,0,0); fill-rule: nonzero; opacity: 1;"  paint-order="stroke"  transform=" translate(78.68250000000003, -17.258000000000024)" d="M 0 0 C -7.462 0 -13.51 6.049 -13.51 13.51 C -13.51 20.971 -7.462 27.02 0 27.02 C 7.462 27.02 13.51 20.971 13.51 13.51 C 13.51 6.049 7.462 0 0 0 M -26.147 -61.533 C -33.608999999999995 -61.533 -39.657 -55.484 -39.657 -48.023 C -39.657 -40.56400000000001 -33.608999999999995 -34.515 -26.147 -34.515 C -18.686 -34.515 -12.637999999999998 -40.564 -12.637999999999998 -48.022999999999996 C -12.637999999999998 -55.483999999999995 -18.686 -61.532999999999994 -26.147 -61.532999999999994 M -92.801 0.643 C -98.399 0.643 -102.926 6.42 -102.926 13.558 C -102.926 20.667 -98.399 26.444 -92.801 26.444 L -36.058 26.444 C -33.269 26.444 -30.727 24.997999999999998 -28.892 22.676 C -27.04 20.325 -25.91 17.104999999999997 -25.91 13.557999999999998 C -25.91 6.419999999999998 -30.459 0.6429999999999989 -36.058 0.6429999999999989 z M -52.992000000000004 90.471 C -45.531000000000006 90.471 -39.482000000000006 84.422 -39.482000000000006 76.961 C -39.482000000000006 69.5 -45.531000000000006 63.452 -52.992000000000004 63.452 C -60.45400000000001 63.452 -66.50200000000001 69.5 -66.50200000000001 76.961 C -66.50200000000001 84.422 -60.45400000000001 90.471 -52.99200000000001 90.471 M -80.537 131.39600000000002 C -82.772 131.525 -85.02000000000001 131.61 -87.287 131.61 C -89.554 131.61 -91.801 131.525 -94.036 131.39600000000002 L -100.349 131.39600000000002 C -113.863 131.39600000000002 -126.46000000000001 127.28500000000001 -137.094 120.21500000000002 C -141.25 117.45200000000001 -145.11599999999999 114.25000000000001 -148.607 110.64400000000002 C -156 102.98600000000002 -150.61599999999999 89.73700000000002 -140.24 89.73700000000002 L -92.971 89.73700000000002 C -90.166 89.73700000000002 -87.644 88.29100000000003 -85.809 85.94700000000002 C -83.975 83.62500000000001 -82.846 80.39100000000002 -82.846 76.82900000000002 C -82.846 69.70600000000002 -87.37700000000001 63.93600000000002 -92.971 63.93600000000002 L -168.935 63.93600000000002 C -168.931 63.96900000000002 -168.927 64.00000000000001 -168.937 63.93600000000002 C -172.96800000000002 63.47200000000002 -176.638 61.14300000000002 -179.366 58.279000000000025 C -182.5 54.98800000000003 -184.43 50.45800000000003 -184.43 45.450000000000024 C -184.43 36.12500000000003 -177.725 27.470000000000024 -169.09 26.444000000000024 L -135.598 26.444000000000024 C -132.80700000000002 26.444000000000024 -130.26700000000002 24.998000000000022 -128.43300000000002 22.676000000000023 C -126.59800000000003 20.325000000000024 -125.46900000000002 17.105000000000025 -125.46900000000002 13.558000000000023 C -125.46900000000002 6.420000000000023 -130.00000000000003 0.6430000000000238 -135.598 0.6430000000000238 L -169.03000000000003 0.6430000000000238 C -169.03600000000003 0.7140000000000237 -169.04300000000003 0.7930000000000238 -169.03300000000002 0.6430000000000238 C -172.68 0.12200000000002376 -175.911 -2.462999999999976 -178.39300000000003 -5.069999999999976 C -181.37500000000003 -8.196999999999976 -183.22700000000003 -12.507999999999976 -183.22700000000003 -17.279999999999976 C -183.22700000000003 -26.847999999999978 -174.61000000000004 -34.86299999999997 -165.51400000000004 -34.86299999999997 L -165.07600000000005 -34.98099999999997 L -114.88800000000005 -34.98099999999997 C -112.09900000000005 -34.98099999999997 -109.55600000000005 -36.427999999999976 -107.72200000000005 -38.74999999999997 C -105.88700000000006 -41.09399999999997 -104.76100000000005 -44.327999999999975 -104.76100000000005 -47.89099999999997 C -104.76100000000005 -55.01399999999997 -109.28900000000006 -60.78299999999997 -114.88800000000005 -60.78299999999997 L -142.59000000000006 -60.78299999999997 C -150.27000000000007 -60.78299999999997 -155.37000000000006 -69.10399999999997 -152.20100000000005 -76.46299999999997 C -152.11500000000004 -76.66399999999996 -152.02000000000004 -76.85799999999996 -151.93300000000005 -77.05899999999997 C -133.54100000000005 -89.68799999999997 -111.28200000000004 -97.09399999999997 -87.28700000000005 -97.09399999999997 C -24.132000000000048 -97.09399999999997 27.064999999999955 -45.895999999999965 27.064999999999955 17.258000000000038 C 27.064999999999955 78.14500000000004 -20.527000000000044 127.90000000000003 -80.53700000000005 131.39600000000004" stroke-linecap="round" />
</g>
</g>
</g>
<g transform="matrix(1.9211538461538462 0 0 1.9211538461538462 639.9574494441105 688.4777565892332)" id="text-logo"  >
<g style=""  paint-order="stroke"   >
		<g transform="matrix(1 0 0 1 0 0)" id="text-logo-path-0"  >
<path style="stroke: none; stroke-width: 0; stroke-dasharray: none; stroke-linecap: butt; stroke-dashoffset: 0; stroke-linejoin: miter; stroke-miterlimit: 4; fill: rgb(0,0,0); fill-rule: nonzero; opacity: 1;"  paint-order="stroke"  transform=" translate(-100.145, 14.515)" d="M 16.72 14.53 Q 12.71 14.53 9.4 13.39 Q 6.09 12.26 4.01 9.74 Q 1.92 7.22 1.74 3.24 L 1.74 3.24 L 10.44 3.24 Q 10.57 5.67 12.21 6.87 Q 13.84 8.07 16.85 8.07 L 16.85 8.07 Q 19.78 8.07 21.29 6.66 Q 22.81 5.25 22.81 2.21 L 22.81 2.21 L 22.81 -3.14 Q 21.59 -1.27 19.18 -0.37 Q 16.77 0.53 14.05 0.53 L 14.05 0.53 Q 10.23 0.53 7.34 -1.2 Q 4.46 -2.93 2.9 -5.97 Q 1.34 -9.02 1.34 -12.84 L 1.34 -12.84 Q 1.34 -16.66 2.9 -19.7 Q 4.46 -22.73 7.34 -24.46 Q 10.23 -26.18 14.05 -26.18 L 14.05 -26.18 Q 16.72 -26.18 18.89 -25.35 Q 21.07 -24.52 22.81 -22.46 L 22.81 -22.46 L 22.81 -25.6 L 31.54 -25.6 L 31.54 2.27 Q 31.54 6.35 29.68 9.11 Q 27.82 11.87 24.5 13.2 Q 21.17 14.53 16.72 14.53 L 16.72 14.53 Z M 10.63 -12.84 Q 10.63 -11.1 11.32 -9.64 Q 12.02 -8.17 13.39 -7.3 Q 14.77 -6.43 16.72 -6.43 L 16.72 -6.43 Q 18.67 -6.43 20.04 -7.3 Q 21.41 -8.17 22.11 -9.64 Q 22.81 -11.1 22.81 -12.84 L 22.81 -12.84 Q 22.81 -14.55 22.11 -16.02 Q 21.41 -17.48 20.04 -18.35 Q 18.67 -19.22 16.72 -19.22 L 16.72 -19.22 Q 14.77 -19.22 13.39 -18.35 Q 12.02 -17.48 11.32 -16.02 Q 10.63 -14.55 10.63 -12.84 L 10.63 -12.84 Z M 49.16 0 L 49.16 -25.6 L 57.87 -25.6 L 57.87 -22.46 Q 58.95 -24.05 60.65 -25.11 Q 62.35 -26.18 64.38 -26.18 L 64.38 -26.18 Q 65.14 -26.18 65.91 -26.02 Q 66.67 -25.87 67.23 -25.6 L 67.23 -25.6 L 67.23 -17.53 L 66.7 -17.53 Q 64.98 -18.35 63.27 -18.35 L 63.27 -18.35 Q 60.74 -18.35 59.3 -16.64 Q 57.87 -14.92 57.87 -11.6 L 57.87 -11.6 L 57.87 0 L 49.16 0 Z M 91.82 0.58 Q 88.26 0.58 85.5 -1.15 Q 82.75 -2.87 81.22 -5.92 Q 79.69 -8.96 79.69 -12.76 L 79.69 -12.76 Q 79.69 -16.58 81.22 -19.64 Q 82.75 -22.7 85.5 -24.44 Q 88.26 -26.18 91.82 -26.18 L 91.82 -26.18 Q 94.48 -26.18 96.73 -25.31 Q 98.99 -24.44 100.57 -22.46 L 100.57 -22.46 L 100.57 -25.6 L 109.3 -25.6 L 109.3 0 L 100.57 0 L 100.57 -3.08 Q 99.36 -1.24 96.92 -0.33 Q 94.48 0.58 91.82 0.58 L 91.82 0.58 Z M 88.39 -12.76 Q 88.39 -11.05 89.09 -9.58 Q 89.79 -8.12 91.16 -7.25 Q 92.53 -6.38 94.48 -6.38 L 94.48 -6.38 Q 96.43 -6.38 97.8 -7.25 Q 99.17 -8.12 99.87 -9.58 Q 100.57 -11.05 100.57 -12.76 L 100.57 -12.76 Q 100.57 -14.5 99.87 -15.97 Q 99.17 -17.43 97.8 -18.3 Q 96.43 -19.17 94.48 -19.17 L 94.48 -19.17 Q 92.53 -19.17 91.16 -18.3 Q 89.79 -17.43 89.09 -15.97 Q 88.39 -14.5 88.39 -12.76 L 88.39 -12.76 Z M 137.02 0.58 Q 133.47 0.58 130.71 -1.15 Q 127.95 -2.87 126.43 -5.92 Q 124.9 -8.96 124.9 -12.76 L 124.9 -12.76 Q 124.9 -16.58 126.43 -19.64 Q 127.95 -22.7 130.71 -24.44 Q 133.47 -26.18 137.02 -26.18 L 137.02 -26.18 Q 139.69 -26.18 141.94 -25.31 Q 144.2 -24.44 145.78 -22.46 L 145.78 -22.46 L 145.78 -43.56 L 154.51 -43.56 L 154.51 0 L 145.78 0 L 145.78 -3.08 Q 144.57 -1.24 142.13 -0.33 Q 139.69 0.58 137.02 0.58 L 137.02 0.58 Z M 133.6 -12.76 Q 133.6 -11.05 134.3 -9.58 Q 134.99 -8.12 136.37 -7.25 Q 137.74 -6.38 139.69 -6.38 L 139.69 -6.38 Q 141.64 -6.38 143.01 -7.25 Q 144.38 -8.12 145.08 -9.58 Q 145.78 -11.05 145.78 -12.76 L 145.78 -12.76 Q 145.78 -14.5 145.08 -15.97 Q 144.38 -17.43 143.01 -18.3 Q 141.64 -19.17 139.69 -19.17 L 139.69 -19.17 Q 137.74 -19.17 136.37 -18.3 Q 134.99 -17.43 134.3 -15.97 Q 133.6 -14.5 133.6 -12.76 L 133.6 -12.76 Z M 184.79 0.58 Q 180.41 0.58 177.03 -1.07 Q 173.64 -2.72 171.75 -5.73 Q 169.87 -8.75 169.87 -12.76 L 169.87 -12.76 Q 169.87 -16.69 171.79 -19.75 Q 173.72 -22.81 177.12 -24.5 Q 180.52 -26.18 184.79 -26.18 L 184.79 -26.18 Q 188.72 -26.18 191.95 -24.65 Q 195.18 -23.12 197.07 -20.21 Q 198.95 -17.3 198.95 -13.34 L 198.95 -13.34 L 198.95 -11.15 L 179.1 -11.15 Q 179.28 -8.7 180.76 -7.17 Q 182.23 -5.64 184.61 -5.64 L 184.61 -5.64 Q 186.06 -5.64 187.18 -6.12 Q 188.3 -6.59 188.97 -7.36 Q 189.64 -8.12 189.83 -8.99 L 189.83 -8.99 L 198.66 -8.99 Q 197.42 -4.32 193.74 -1.87 Q 190.07 0.58 184.79 0.58 L 184.79 0.58 Z M 179.2 -15.85 L 189.72 -15.85 Q 189.62 -17.09 188.96 -18.09 Q 188.3 -19.09 187.14 -19.68 Q 185.98 -20.28 184.5 -20.28 L 184.5 -20.28 Q 182.23 -20.28 180.92 -19.05 Q 179.6 -17.82 179.2 -15.85 L 179.2 -15.85 Z" stroke-linecap="round" />
</g>
</g>
</g>
</svg>