<svg width="1280" height="1024" viewBox="0 0 1280 1024" fill="none" xmlns="http://www.w3.org/2000/svg">
<g clip-path="url(#clip0_6_2)">
<path d="M450.805 322.424C461.32 322.423 469.85 313.892 469.85 303.372C469.85 292.843 461.32 284.314 450.805 284.313C440.28 284.314 431.752 292.843 431.752 303.372C431.752 313.892 440.28 322.423 450.805 322.424Z" fill="white"/>
<path d="M491.877 322.424H538.306C545.207 322.424 550.806 313.893 550.806 303.372C550.806 292.843 545.207 284.313 538.306 284.313H491.877C484.975 284.313 479.374 292.843 479.374 303.372C479.374 313.893 484.975 322.424 491.877 322.424Z" fill="white"/>
<path d="M434.711 388.385C424.186 388.386 415.658 396.917 415.658 407.444C415.658 417.965 424.186 426.496 434.711 426.498C445.227 426.496 453.755 417.965 453.755 407.444C453.755 396.917 445.227 388.386 434.711 388.385Z" fill="white"/>
<path d="M463.28 407.443C463.28 417.965 468.881 426.497 475.784 426.497H522.212C529.113 426.497 534.713 417.965 534.713 407.443C534.713 396.917 529.113 388.384 522.212 388.384H475.784C468.881 388.384 463.28 396.917 463.28 407.443Z" fill="white"/>
<path d="M474.409 486.021C463.884 486.021 455.356 494.553 455.356 505.078C455.356 515.6 463.884 524.131 474.409 524.131C484.925 524.131 493.454 515.6 493.454 505.078C493.454 494.553 484.925 486.021 474.409 486.021Z" fill="white"/>
<path d="M561.91 486.021H515.482C508.579 486.021 502.978 494.553 502.978 505.078C502.978 515.603 508.579 524.131 515.482 524.131H561.91C568.812 524.131 574.411 515.603 574.411 505.078C574.411 494.553 568.812 486.021 561.91 486.021Z" fill="white"/>
<path d="M822.696 428.21C811.214 428.21 801.907 418.902 801.907 407.422C801.907 395.941 811.214 386.633 822.696 386.633C834.178 386.633 843.484 395.941 843.484 407.422C843.484 418.902 834.178 428.21 822.696 428.21ZM782.462 522.893C770.98 522.893 761.674 513.586 761.674 502.105C761.674 490.628 770.98 481.32 782.462 481.32C793.943 481.32 803.249 490.628 803.249 502.105C803.249 513.586 793.943 522.893 782.462 522.893ZM679.899 427.221C671.285 427.221 664.32 418.331 664.32 407.348C664.32 396.409 671.285 387.52 679.899 387.52H767.212C771.504 387.52 775.415 389.745 778.239 393.318C781.088 396.935 782.827 401.89 782.827 407.348C782.827 418.331 775.827 427.221 767.212 427.221H679.899ZM741.155 288.999C752.635 288.999 761.943 298.307 761.943 309.787C761.943 321.268 752.635 330.574 741.155 330.574C729.673 330.574 720.367 321.268 720.367 309.787C720.367 298.307 729.673 288.999 741.155 288.999ZM698.77 226.026C695.331 225.828 691.872 225.697 688.384 225.697C684.896 225.697 681.438 225.828 677.999 226.026H668.285C647.49 226.026 628.107 232.352 611.744 243.231C605.349 247.482 599.4 252.409 594.028 257.958C582.653 269.742 590.937 290.128 606.903 290.128H679.638C683.954 290.128 687.835 292.353 690.658 295.96C693.48 299.533 695.217 304.509 695.217 309.99C695.217 320.951 688.245 329.829 679.638 329.829H562.749C562.755 329.779 562.761 329.731 562.746 329.829C556.543 330.543 550.896 334.127 546.698 338.534C541.876 343.598 538.906 350.568 538.906 358.274C538.906 372.623 549.223 385.941 562.51 387.52H614.046C618.341 387.52 622.249 389.745 625.071 393.318C627.895 396.935 629.632 401.89 629.632 407.348C629.632 418.331 622.66 427.221 614.046 427.221H562.603C562.594 427.111 562.583 426.99 562.598 427.221C556.986 428.022 552.015 432 548.196 436.012C543.607 440.823 540.757 447.457 540.757 454.8C540.757 469.522 554.017 481.855 568.013 481.855L568.687 482.037H645.913C650.205 482.037 654.118 484.263 656.94 487.836C659.763 491.443 661.496 496.419 661.496 501.902C661.496 512.862 654.529 521.739 645.913 521.739H603.287C591.47 521.739 583.622 534.543 588.498 545.867C588.631 546.176 588.777 546.475 588.911 546.784C617.211 566.217 651.462 577.612 688.384 577.612C785.563 577.612 864.342 498.832 864.342 401.655C864.342 307.965 791.11 231.405 698.77 226.026Z" fill="white"/>
<path d="M479.685 744.278C474.549 744.278 469.862 743.548 465.622 742.088C461.383 740.64 457.931 738.303 455.267 735.075C452.59 731.848 451.137 727.685 450.906 722.588H467.62C467.787 725.7 468.92 728.025 471.021 729.562C473.108 731.099 476.08 731.867 479.935 731.867C483.688 731.867 486.531 730.964 488.465 729.158C490.412 727.352 491.385 724.503 491.385 720.609V710.331C489.822 712.726 487.498 714.5 484.411 715.652C481.325 716.805 478.039 717.382 474.556 717.382C469.663 717.382 465.366 716.274 461.665 714.058C457.976 711.842 455.133 708.788 453.135 704.894C451.137 700.988 450.138 696.588 450.138 691.696C450.138 686.803 451.137 682.41 453.135 678.517C455.133 674.636 457.976 671.588 461.665 669.372C465.366 667.169 469.663 666.068 474.556 666.068C477.975 666.068 481.075 666.599 483.854 667.662C486.646 668.725 489.156 670.576 491.385 673.214V667.182H508.157V720.724C508.157 725.95 506.966 730.33 504.583 733.865C502.201 737.4 498.884 740.019 494.632 741.723C490.367 743.426 485.385 744.278 479.685 744.278ZM467.985 691.696C467.985 693.924 468.427 695.973 469.311 697.843C470.207 699.726 471.533 701.225 473.288 702.339C475.055 703.453 477.188 704.01 479.685 704.01C482.183 704.01 484.309 703.453 486.063 702.339C487.818 701.225 489.144 699.726 490.04 697.843C490.937 695.973 491.385 693.924 491.385 691.696C491.385 689.506 490.937 687.469 490.04 685.586C489.144 683.717 487.818 682.224 486.063 681.11C484.309 679.996 482.183 679.439 479.685 679.439C477.188 679.439 475.055 679.996 473.288 681.11C471.533 682.224 470.207 683.717 469.311 685.586C468.427 687.469 467.985 689.506 467.985 691.696ZM542.007 716.363V667.182H558.741V673.214C560.124 671.178 561.904 669.481 564.081 668.123C566.259 666.753 568.647 666.068 571.247 666.068C572.221 666.068 573.201 666.17 574.187 666.375C575.16 666.567 576.005 666.836 576.723 667.182V682.685H575.704C573.502 681.635 571.305 681.11 569.115 681.11C565.875 681.11 563.332 682.205 561.488 684.395C559.656 686.598 558.741 689.826 558.741 694.078V716.363H542.007ZM623.964 717.478C619.404 717.478 615.357 716.37 611.822 714.154C608.3 711.951 605.559 708.896 603.6 704.99C601.64 701.097 600.66 696.716 600.66 691.849C600.66 686.957 601.64 682.551 603.6 678.632C605.559 674.713 608.3 671.639 611.822 669.41C615.357 667.182 619.404 666.068 623.964 666.068C627.371 666.068 630.515 666.625 633.397 667.739C636.291 668.853 638.75 670.678 640.774 673.214V667.182H657.546V716.363H640.774V710.446C639.224 712.803 636.887 714.564 633.762 715.729C630.637 716.895 627.371 717.478 623.964 717.478ZM617.374 691.849C617.374 694.04 617.823 696.076 618.719 697.959C619.616 699.829 620.941 701.321 622.696 702.435C624.451 703.549 626.577 704.106 629.074 704.106C631.572 704.106 633.698 703.549 635.452 702.435C637.207 701.321 638.533 699.829 639.429 697.959C640.326 696.076 640.774 694.04 640.774 691.849C640.774 689.621 640.326 687.565 639.429 685.682C638.533 683.813 637.207 682.32 635.452 681.206C633.698 680.092 631.572 679.535 629.074 679.535C626.577 679.535 624.451 680.092 622.696 681.206C620.941 682.32 619.616 683.813 618.719 685.682C617.823 687.565 617.374 689.621 617.374 691.849ZM710.8 717.478C706.253 717.478 702.212 716.37 698.678 714.154C695.143 711.951 692.402 708.896 690.455 704.99C688.495 701.097 687.516 696.716 687.516 691.849C687.516 686.957 688.495 682.551 690.455 678.632C692.402 674.713 695.143 671.639 698.678 669.41C702.212 667.182 706.253 666.068 710.8 666.068C714.22 666.068 717.37 666.625 720.252 667.739C723.147 668.853 725.606 670.678 727.629 673.214V632.678H744.401V716.363H727.629V710.446C726.08 712.803 723.742 714.564 720.617 715.729C717.492 716.895 714.22 717.478 710.8 717.478ZM704.23 691.849C704.23 694.04 704.678 696.076 705.574 697.959C706.458 699.829 707.784 701.321 709.551 702.435C711.306 703.549 713.432 704.106 715.929 704.106C718.427 704.106 720.553 703.549 722.308 702.435C724.062 701.321 725.388 699.829 726.284 697.959C727.181 696.076 727.629 694.04 727.629 691.849C727.629 689.621 727.181 687.565 726.284 685.682C725.388 683.813 724.062 682.32 722.308 681.206C720.553 680.092 718.427 679.535 715.929 679.535C713.432 679.535 711.306 680.092 709.551 681.206C707.784 682.32 706.458 683.813 705.574 685.682C704.678 687.565 704.23 689.621 704.23 691.849ZM802.573 717.478C796.964 717.478 791.994 716.421 787.665 714.308C783.324 712.194 779.942 709.21 777.522 705.355C775.114 701.487 773.91 696.985 773.91 691.849C773.91 686.816 775.139 682.34 777.598 678.421C780.07 674.501 783.484 671.46 787.838 669.295C792.193 667.143 797.105 666.068 802.573 666.068C807.607 666.068 812.192 667.047 816.329 669.007C820.466 670.966 823.745 673.81 826.165 677.537C828.573 681.264 829.777 685.663 829.777 690.735V694.942H791.642C791.873 698.08 792.936 700.629 794.831 702.589C796.714 704.548 799.179 705.528 802.228 705.528C804.085 705.528 805.731 705.221 807.165 704.606C808.6 704.004 809.746 703.21 810.604 702.224C811.462 701.25 812.013 700.206 812.256 699.092H829.22C827.632 705.073 824.481 709.633 819.768 712.771C815.067 715.909 809.336 717.478 802.573 717.478ZM791.834 685.913H812.045C811.917 684.325 811.43 682.89 810.585 681.61C809.739 680.329 808.574 679.311 807.088 678.555C805.603 677.787 803.912 677.402 802.016 677.402C799.109 677.402 796.816 678.19 795.139 679.765C793.448 681.341 792.347 683.39 791.834 685.913Z" fill="white"/>
</g>
<defs>
<clipPath id="clip0_6_2">
<rect width="1280" height="1024" fill="white"/>
</clipPath>
</defs>
</svg>
