<svg width="448" height="518" viewBox="0 0 448 518" fill="none" xmlns="http://www.w3.org/2000/svg">
<g clip-path="url(#clip0_22_23)">
<path d="M34.8047 96.4242C45.3205 96.4227 53.8497 87.8919 53.8497 77.3715C53.8497 66.8435 45.3205 58.3143 34.8047 58.3127C24.2798 58.3143 15.7521 66.8435 15.7521 77.3715C15.7521 87.8919 24.2798 96.4227 34.8047 96.4242Z" fill="black"/>
<path d="M75.8773 96.4242H122.306C129.207 96.4242 134.806 87.8934 134.806 77.3715C134.806 66.8435 129.207 58.3127 122.306 58.3127H75.8773C68.9745 58.3127 63.3735 66.8435 63.3735 77.3715C63.3735 87.8934 68.9745 96.4242 75.8773 96.4242Z" fill="black"/>
<path d="M18.7111 162.385C8.18614 162.386 -0.341553 170.917 -0.341553 181.444C-0.341553 191.966 8.18614 200.496 18.7111 200.498C29.2268 200.496 37.7545 191.966 37.7545 181.444C37.7545 170.917 29.2268 162.386 18.7111 162.385Z" fill="black"/>
<path d="M47.2799 181.443C47.2799 191.965 52.8809 200.497 59.7837 200.497H106.212C113.113 200.497 118.713 191.965 118.713 181.443C118.713 170.917 113.113 162.384 106.212 162.384H59.7837C52.8809 162.384 47.2799 170.917 47.2799 181.443Z" fill="black"/>
<path d="M58.4089 260.021C47.8839 260.021 39.3562 268.553 39.3562 279.078C39.3562 289.6 47.8839 298.131 58.4089 298.131C68.9246 298.131 77.4538 289.6 77.4538 279.078C77.4538 268.553 68.9246 260.021 58.4089 260.021Z" fill="black"/>
<path d="M145.91 260.021H99.4819C92.5792 260.021 86.9781 268.553 86.9781 279.078C86.9781 289.603 92.5792 298.131 99.4819 298.131H145.91C152.812 298.131 158.411 289.603 158.411 279.078C158.411 268.553 152.812 260.021 145.91 260.021Z" fill="black"/>
<path d="M406.696 202.21C395.214 202.21 385.907 192.902 385.907 181.422C385.907 169.941 395.214 160.633 406.696 160.633C418.178 160.633 427.484 169.941 427.484 181.422C427.484 192.902 418.178 202.21 406.696 202.21ZM366.462 296.893C354.98 296.893 345.674 287.586 345.674 276.105C345.674 264.628 354.98 255.32 366.462 255.32C377.943 255.32 387.249 264.628 387.249 276.105C387.249 287.586 377.943 296.893 366.462 296.893ZM263.899 201.221C255.285 201.221 248.32 192.331 248.32 181.348C248.32 170.409 255.285 161.52 263.899 161.52H351.212C355.504 161.52 359.415 163.745 362.239 167.318C365.088 170.935 366.827 175.89 366.827 181.348C366.827 192.331 359.827 201.221 351.212 201.221H263.899ZM325.155 62.9989C336.635 62.9989 345.943 72.3068 345.943 83.7873C345.943 95.2678 336.635 104.574 325.155 104.574C313.673 104.574 304.367 95.2678 304.367 83.7873C304.367 72.3068 313.673 62.9989 325.155 62.9989ZM282.77 0.0260877C279.331 -0.17241 275.872 -0.303233 272.384 -0.303233C268.896 -0.303233 265.438 -0.17241 261.999 0.0260877H252.285C231.49 0.0260877 212.107 6.35184 195.744 17.2307C189.349 21.4823 183.4 26.4093 178.028 31.958C166.653 43.7416 174.937 64.1284 190.903 64.1284H263.638C267.954 64.1284 271.835 66.3534 274.658 69.9602C277.48 73.5332 279.217 78.5094 279.217 83.9904C279.217 94.9509 272.245 103.829 263.638 103.829H146.749C146.755 103.779 146.761 103.731 146.746 103.829C140.543 104.543 134.896 108.127 130.698 112.534C125.876 117.598 122.906 124.568 122.906 132.274C122.906 146.623 133.223 159.941 146.51 161.52H198.046C202.341 161.52 206.249 163.745 209.071 167.318C211.895 170.935 213.632 175.89 213.632 181.348C213.632 192.331 206.66 201.221 198.046 201.221H146.603C146.594 201.112 146.583 200.99 146.598 201.221C140.986 202.022 136.015 206 132.196 210.012C127.607 214.823 124.757 221.457 124.757 228.8C124.757 243.522 138.017 255.855 152.013 255.855L152.687 256.037H229.913C234.205 256.037 238.118 258.263 240.94 261.836C243.763 265.443 245.496 270.419 245.496 275.902C245.496 286.862 238.529 295.739 229.913 295.739H187.287C175.47 295.739 167.622 308.543 172.498 319.867C172.631 320.176 172.777 320.475 172.911 320.784C201.211 340.217 235.462 351.612 272.384 351.612C369.563 351.612 448.342 272.832 448.342 175.655C448.342 81.9654 375.11 5.40552 282.77 0.0260877Z" fill="black"/>
<path d="M63.6852 518.278C58.5493 518.278 53.8617 517.548 49.6223 516.088C45.383 514.64 41.9313 512.303 39.2673 509.075C36.5905 505.848 35.1368 501.685 34.9063 496.588H51.6203C51.7868 499.7 52.9203 502.025 55.0208 503.562C57.1084 505.099 60.0798 505.867 63.9349 505.867C67.6876 505.867 70.5309 504.964 72.4648 503.158C74.4116 501.352 75.385 498.503 75.385 494.609V484.331C73.8225 486.726 71.4979 488.5 68.4112 489.652C65.3245 490.805 62.0394 491.382 58.5557 491.382C53.6631 491.382 49.3662 490.274 45.6647 488.058C41.9761 485.842 39.1328 482.788 37.1348 478.894C35.1368 474.988 34.1378 470.588 34.1378 465.696C34.1378 460.803 35.1368 456.41 37.1348 452.517C39.1328 448.636 41.9761 445.588 45.6647 443.372C49.3662 441.169 53.6631 440.068 58.5557 440.068C61.9753 440.068 65.0748 440.599 67.8541 441.662C70.6461 442.725 73.1565 444.576 75.385 447.214V441.182H92.1567V494.724C92.1567 499.95 90.9656 504.33 88.5833 507.865C86.2011 511.4 82.8839 514.019 78.6317 515.723C74.3668 517.426 69.3846 518.278 63.6852 518.278ZM51.9853 465.696C51.9853 467.924 52.4272 469.973 53.3109 471.843C54.2075 473.726 55.5331 475.225 57.2877 476.339C59.0552 477.453 61.1877 478.01 63.6852 478.01C66.1827 478.01 68.3087 477.453 70.0634 476.339C71.8181 475.225 73.1436 473.726 74.0402 471.843C74.9367 469.973 75.385 467.924 75.385 465.696C75.385 463.506 74.9367 461.469 74.0402 459.586C73.1436 457.717 71.8181 456.224 70.0634 455.11C68.3087 453.996 66.1827 453.439 63.6852 453.439C61.1877 453.439 59.0552 453.996 57.2877 455.11C55.5331 456.224 54.2075 457.717 53.3109 459.586C52.4272 461.469 51.9853 463.506 51.9853 465.696ZM126.007 490.363V441.182H142.741V447.214C144.124 445.178 145.904 443.481 148.081 442.123C150.259 440.753 152.647 440.068 155.247 440.068C156.221 440.068 157.201 440.17 158.187 440.375C159.16 440.567 160.005 440.836 160.723 441.182V456.685H159.704C157.502 455.635 155.305 455.11 153.115 455.11C149.875 455.11 147.332 456.205 145.488 458.395C143.656 460.598 142.741 463.826 142.741 468.078V490.363H126.007ZM207.964 491.478C203.404 491.478 199.357 490.37 195.822 488.154C192.3 485.951 189.559 482.896 187.6 478.99C185.64 475.097 184.66 470.716 184.66 465.849C184.66 460.957 185.64 456.551 187.6 452.632C189.559 448.713 192.3 445.639 195.822 443.41C199.357 441.182 203.404 440.068 207.964 440.068C211.371 440.068 214.515 440.625 217.397 441.739C220.291 442.853 222.75 444.678 224.774 447.214V441.182H241.546V490.363H224.774V484.446C223.224 486.803 220.887 488.564 217.762 489.729C214.637 490.895 211.371 491.478 207.964 491.478ZM201.374 465.849C201.374 468.04 201.823 470.076 202.719 471.959C203.616 473.829 204.941 475.321 206.696 476.435C208.451 477.549 210.577 478.106 213.074 478.106C215.572 478.106 217.698 477.549 219.452 476.435C221.207 475.321 222.533 473.829 223.429 471.959C224.326 470.076 224.774 468.04 224.774 465.849C224.774 463.621 224.326 461.565 223.429 459.682C222.533 457.813 221.207 456.32 219.452 455.206C217.698 454.092 215.572 453.535 213.074 453.535C210.577 453.535 208.451 454.092 206.696 455.206C204.941 456.32 203.616 457.813 202.719 459.682C201.823 461.565 201.374 463.621 201.374 465.849ZM294.8 491.478C290.253 491.478 286.212 490.37 282.678 488.154C279.143 485.951 276.402 482.896 274.455 478.99C272.495 475.097 271.516 470.716 271.516 465.849C271.516 460.957 272.495 456.551 274.455 452.632C276.402 448.713 279.143 445.639 282.678 443.41C286.212 441.182 290.253 440.068 294.8 440.068C298.22 440.068 301.37 440.625 304.252 441.739C307.147 442.853 309.606 444.678 311.629 447.214V406.678H328.401V490.363H311.629V484.446C310.08 486.803 307.742 488.564 304.617 489.729C301.492 490.895 298.22 491.478 294.8 491.478ZM288.23 465.849C288.23 468.04 288.678 470.076 289.574 471.959C290.458 473.829 291.784 475.321 293.551 476.435C295.306 477.549 297.432 478.106 299.929 478.106C302.427 478.106 304.553 477.549 306.308 476.435C308.062 475.321 309.388 473.829 310.284 471.959C311.181 470.076 311.629 468.04 311.629 465.849C311.629 463.621 311.181 461.565 310.284 459.682C309.388 457.813 308.062 456.32 306.308 455.206C304.553 454.092 302.427 453.535 299.929 453.535C297.432 453.535 295.306 454.092 293.551 455.206C291.784 456.32 290.458 457.813 289.574 459.682C288.678 461.565 288.23 463.621 288.23 465.849ZM386.573 491.478C380.964 491.478 375.994 490.421 371.665 488.308C367.324 486.194 363.942 483.21 361.522 479.355C359.114 475.487 357.91 470.985 357.91 465.849C357.91 460.816 359.139 456.34 361.598 452.421C364.07 448.501 367.484 445.46 371.838 443.295C376.193 441.143 381.105 440.068 386.573 440.068C391.607 440.068 396.192 441.047 400.329 443.007C404.466 444.966 407.745 447.81 410.165 451.537C412.573 455.264 413.777 459.663 413.777 464.735V468.942H375.642C375.873 472.08 376.936 474.629 378.831 476.589C380.714 478.548 383.179 479.528 386.228 479.528C388.085 479.528 389.731 479.221 391.165 478.606C392.6 478.004 393.746 477.21 394.604 476.224C395.462 475.25 396.013 474.206 396.256 473.092H413.22C411.632 479.073 408.481 483.633 403.768 486.771C399.067 489.909 393.336 491.478 386.573 491.478ZM375.834 459.913H396.045C395.917 458.325 395.43 456.89 394.585 455.61C393.739 454.329 392.574 453.311 391.088 452.555C389.603 451.787 387.912 451.402 386.016 451.402C383.109 451.402 380.816 452.19 379.139 453.765C377.448 455.341 376.347 457.39 375.834 459.913Z" fill="black"/>
</g>
<defs>
<clipPath id="clip0_22_23">
<rect width="448" height="518" fill="white"/>
</clipPath>
</defs>
</svg>
